# xmcd
#
# Track frame offsets:
# 150
# 13282
# 30632
# 56520
# 67195
# 81600
# 94942
# 115549
# 130724
# 141337
# 158799
# 179292
# 195824
# 213694
# 228226
#
# Disc length: 3165 seconds
#
#
# Revision: 3
# Processed by: cddbd v1.5.2PL0 Copyright (c) Steve Scherf et al.
# Submitted via: FreeRIP 2.942 
#
DISCID=d10c5b0f
DTITLE=Velhas Virgens - Vocês não sabem como é bom aqui dentro
DYEAR=1997
DGENRE=Rock
TTITLE0=Vocês não sabem como é bom aqui dentro!!
TTITLE1=A Mulher do Diabo
TTITLE2=Abre estas pernas
TTITLE3=Já dizia o Raul
TTITLE4=Beijos de corpo
TTITLE5=Madrugada e meia
TTITLE6=Uns drinks
TTITLE7=Siririca baby
TTITLE8=Eu não quero mais
TTITLE9=Vampiro
TTITLE10=Pão com cerveja
TTITLE11=Sevalgem do asfalto
TTITLE12=Não vale nada
TTITLE13=Lambendo com a testa
TTITLE14=Sweet blues for you
EXTD=Caetano
EXTT0=
EXTT1=
EXTT2=
EXTT3=
EXTT4=
EXTT5=
EXTT6=
EXTT7=
EXTT8=
EXTT9=
EXTT10=
EXTT11=
EXTT12=
EXTT13=
EXTT14=
PLAYORDER=
